<?xml version="1.0" encoding="UTF-8" standalone="no"?>
<!DOCTYPE svg PUBLIC "-//W3C//DTD SVG 1.1//EN"
 "http://www.w3.org/Graphics/SVG/1.1/DTD/svg11.dtd">
<!-- Generated by graphviz version 2.47.0 (20210316.0004)
 -->
<!-- Title: ast Pages: 1 -->
<svg width="311pt" height="382pt"
 viewBox="0.00 0.00 310.50 382.00" xmlns="http://www.w3.org/2000/svg" xmlns:xlink="http://www.w3.org/1999/xlink">
<g id="graph0" class="graph" transform="scale(1 1) rotate(0) translate(4 378)">
<title>ast</title>
<polygon fill="white" stroke="transparent" points="-4,4 -4,-378 306.5,-378 306.5,4 -4,4"/>
<!-- node_1 -->
<g id="node1" class="node">
<title>node_1</title>
<polygon fill="none" stroke="black" points="113,-214 24,-214 24,-178 113,-178 113,-214"/>
<text text-anchor="start" x="32" y="-192.3" font-family="Times New Roman,serif" font-size="14.00">Expr_Assign</text>
</g>
<!-- node_2 -->
<g id="node2" class="node">
<title>node_2</title>
<polygon fill="none" stroke="black" points="97,-127 0,-127 0,-89 97,-89 97,-127"/>
<text text-anchor="start" x="8" y="-111.8" font-family="Times New Roman,serif" font-size="14.00">Expr_Variable</text>
<text text-anchor="middle" x="48.5" y="-96.8" font-family="Times New Roman,serif" font-size="14.00">name: name</text>
</g>
<!-- node_1&#45;&gt;node_2 -->
<g id="edge1" class="edge">
<title>node_1&#45;&gt;node_2</title>
<path fill="none" stroke="black" d="M64.45,-177.6C61.77,-166.06 58.19,-150.65 55.09,-137.36"/>
<polygon fill="black" stroke="black" points="58.42,-136.22 52.75,-127.27 51.6,-137.8 58.42,-136.22"/>
<text text-anchor="middle" x="69.5" y="-148.8" font-family="Times New Roman,serif" font-size="14.00">var</text>
</g>
<!-- node_3 -->
<g id="node3" class="node">
<title>node_3</title>
<polygon fill="none" stroke="black" points="279.5,-126 115.5,-126 115.5,-90 279.5,-90 279.5,-126"/>
<text text-anchor="start" x="123.5" y="-104.3" font-family="Times New Roman,serif" font-size="14.00">Expr_BinaryOp_Coalesce</text>
</g>
<!-- node_1&#45;&gt;node_3 -->
<g id="edge4" class="edge">
<title>node_1&#45;&gt;node_3</title>
<path fill="none" stroke="black" d="M94.3,-177.8C114.07,-164.62 141.55,-146.3 163.18,-131.88"/>
<polygon fill="black" stroke="black" points="165.37,-134.63 171.75,-126.17 161.49,-128.8 165.37,-134.63"/>
<text text-anchor="middle" x="154" y="-148.8" font-family="Times New Roman,serif" font-size="14.00">expr</text>
</g>
<!-- node_4 -->
<g id="node4" class="node">
<title>node_4</title>
<polygon fill="none" stroke="black" points="192,-38 85,-38 85,0 192,0 192,-38"/>
<text text-anchor="start" x="93" y="-22.8" font-family="Times New Roman,serif" font-size="14.00">Expr_Variable</text>
<text text-anchor="middle" x="138.5" y="-7.8" font-family="Times New Roman,serif" font-size="14.00">name: firstName</text>
</g>
<!-- node_3&#45;&gt;node_4 -->
<g id="edge2" class="edge">
<title>node_3&#45;&gt;node_4</title>
<path fill="none" stroke="black" d="M185.84,-89.81C177.44,-77.43 165.95,-60.48 156.4,-46.39"/>
<polygon fill="black" stroke="black" points="159.25,-44.36 150.74,-38.05 153.46,-48.29 159.25,-44.36"/>
<text text-anchor="middle" x="181.5" y="-59.8" font-family="Times New Roman,serif" font-size="14.00">left</text>
</g>
<!-- node_5 -->
<g id="node5" class="node">
<title>node_5</title>
<polygon fill="none" stroke="black" points="302.5,-38 210.5,-38 210.5,0 302.5,0 302.5,-38"/>
<text text-anchor="start" x="218.5" y="-22.8" font-family="Times New Roman,serif" font-size="14.00">Scalar_String</text>
<text text-anchor="middle" x="256.5" y="-7.8" font-family="Times New Roman,serif" font-size="14.00">&quot;Guest&quot;</text>
</g>
<!-- node_3&#45;&gt;node_5 -->
<g id="edge3" class="edge">
<title>node_3&#45;&gt;node_5</title>
<path fill="none" stroke="black" d="M209.16,-89.81C217.56,-77.43 229.05,-60.48 238.6,-46.39"/>
<polygon fill="black" stroke="black" points="241.54,-48.29 244.26,-38.05 235.75,-44.36 241.54,-48.29"/>
<text text-anchor="middle" x="244" y="-59.8" font-family="Times New Roman,serif" font-size="14.00">right</text>
</g>
<!-- node_0 -->
<g id="node6" class="node">
<title>node_0</title>
<polygon fill="none" stroke="black" points="125,-301 12,-301 12,-265 125,-265 125,-301"/>
<text text-anchor="start" x="20" y="-279.3" font-family="Times New Roman,serif" font-size="14.00">Stmt_Expression</text>
</g>
<!-- node_0&#45;&gt;node_1 -->
<g id="edge5" class="edge">
<title>node_0&#45;&gt;node_1</title>
<path fill="none" stroke="black" d="M68.5,-264.8C68.5,-253.16 68.5,-237.55 68.5,-224.24"/>
<polygon fill="black" stroke="black" points="72,-224.18 68.5,-214.18 65,-224.18 72,-224.18"/>
<text text-anchor="middle" x="81" y="-235.8" font-family="Times New Roman,serif" font-size="14.00">expr</text>
</g>
<!-- start -->
<g id="node7" class="node">
<title>start</title>
<polygon fill="none" stroke="black" points="95.5,-374 41.5,-374 41.5,-338 95.5,-338 95.5,-374"/>
<text text-anchor="middle" x="68.5" y="-352.3" font-family="Times New Roman,serif" font-size="14.00">start</text>
</g>
<!-- start&#45;&gt;node_0 -->
<g id="edge6" class="edge">
<title>start&#45;&gt;node_0</title>
<path fill="none" stroke="black" d="M68.5,-337.81C68.5,-329.79 68.5,-320.05 68.5,-311.07"/>
<polygon fill="black" stroke="black" points="72,-311.03 68.5,-301.03 65,-311.03 72,-311.03"/>
</g>
</g>
</svg>
